<mxfile modified="2024-05-12T16:28:26.968Z" host="app.diagrams.net" agent="Mozilla/5.0 (X11; Ubuntu; Linux x86_64; rv:125.0) Gecko/20100101 Firefox/125.0" etag="cnC6Ag9nYgnRP6sVMgem" version="24.4.0" type="github">
  <diagram id="7gcUSTIZ7YSJ5vT40chW" name="Page-1">
    <mxGraphModel dx="1674" dy="747" grid="1" gridSize="10" guides="1" tooltips="1" connect="1" arrows="1" fold="1" page="1" pageScale="1" pageWidth="1169" pageHeight="827" math="0" shadow="0">
      <root>
        <mxCell id="0" />
        <mxCell id="1" parent="0" />
        <mxCell id="u9NiN3fWlVmESYlsB_uh-1" value="" style="shape=actor;whiteSpace=wrap;html=1;" vertex="1" parent="1">
          <mxGeometry x="90" y="120" width="40" height="60" as="geometry" />
        </mxCell>
        <mxCell id="u9NiN3fWlVmESYlsB_uh-2" value="" style="outlineConnect=0;dashed=0;verticalLabelPosition=bottom;verticalAlign=top;align=center;html=1;shape=mxgraph.aws3.application_load_balancer;fillColor=#F58534;gradientColor=none;" vertex="1" parent="1">
          <mxGeometry x="310" y="114" width="69" height="72" as="geometry" />
        </mxCell>
        <mxCell id="u9NiN3fWlVmESYlsB_uh-3" value="" style="image;aspect=fixed;perimeter=ellipsePerimeter;html=1;align=center;shadow=0;dashed=0;spacingTop=3;image=img/lib/active_directory/server_farm.svg;" vertex="1" parent="1">
          <mxGeometry x="560" y="136" width="50" height="50" as="geometry" />
        </mxCell>
        <mxCell id="u9NiN3fWlVmESYlsB_uh-5" value="" style="edgeStyle=none;orthogonalLoop=1;jettySize=auto;html=1;endArrow=classic;startArrow=classic;endSize=8;startSize=8;rounded=0;exitX=1;exitY=0.75;exitDx=0;exitDy=0;" edge="1" parent="1" source="u9NiN3fWlVmESYlsB_uh-1" target="u9NiN3fWlVmESYlsB_uh-2">
          <mxGeometry width="100" relative="1" as="geometry">
            <mxPoint x="140" y="170" as="sourcePoint" />
            <mxPoint x="280" y="170" as="targetPoint" />
            <Array as="points" />
          </mxGeometry>
        </mxCell>
        <mxCell id="u9NiN3fWlVmESYlsB_uh-6" value="" style="edgeStyle=none;orthogonalLoop=1;jettySize=auto;html=1;endArrow=classic;startArrow=classic;endSize=8;startSize=8;rounded=0;entryX=0;entryY=0.5;entryDx=0;entryDy=0;" edge="1" parent="1" target="u9NiN3fWlVmESYlsB_uh-3">
          <mxGeometry width="100" relative="1" as="geometry">
            <mxPoint x="380" y="150" as="sourcePoint" />
            <mxPoint x="470" y="140" as="targetPoint" />
            <Array as="points" />
          </mxGeometry>
        </mxCell>
        <mxCell id="u9NiN3fWlVmESYlsB_uh-7" value="" style="image;aspect=fixed;html=1;points=[];align=center;fontSize=12;image=img/lib/azure2/databases/SQL_Database.svg;" vertex="1" parent="1">
          <mxGeometry x="730" y="136" width="48" height="64" as="geometry" />
        </mxCell>
        <mxCell id="u9NiN3fWlVmESYlsB_uh-8" value="" style="edgeStyle=none;orthogonalLoop=1;jettySize=auto;html=1;endArrow=classic;startArrow=classic;endSize=8;startSize=8;rounded=0;exitX=1;exitY=0.5;exitDx=0;exitDy=0;" edge="1" parent="1" source="u9NiN3fWlVmESYlsB_uh-3">
          <mxGeometry width="100" relative="1" as="geometry">
            <mxPoint x="600" y="160" as="sourcePoint" />
            <mxPoint x="720" y="170" as="targetPoint" />
            <Array as="points" />
          </mxGeometry>
        </mxCell>
        <mxCell id="u9NiN3fWlVmESYlsB_uh-9" value="Presence Servers" style="text;html=1;align=center;verticalAlign=middle;resizable=0;points=[];autosize=1;strokeColor=none;fillColor=none;" vertex="1" parent="1">
          <mxGeometry x="510" y="190" width="120" height="30" as="geometry" />
        </mxCell>
        <mxCell id="u9NiN3fWlVmESYlsB_uh-17" value="" style="group" vertex="1" connectable="0" parent="1">
          <mxGeometry x="140" y="304" width="270" height="110" as="geometry" />
        </mxCell>
        <mxCell id="u9NiN3fWlVmESYlsB_uh-12" value="" style="rounded=1;whiteSpace=wrap;html=1;" vertex="1" parent="u9NiN3fWlVmESYlsB_uh-17">
          <mxGeometry width="270" height="110" as="geometry" />
        </mxCell>
        <mxCell id="u9NiN3fWlVmESYlsB_uh-13" value="" style="image;aspect=fixed;perimeter=ellipsePerimeter;html=1;align=center;shadow=0;dashed=0;spacingTop=3;image=img/lib/active_directory/cluster_server.svg;" vertex="1" parent="u9NiN3fWlVmESYlsB_uh-17">
          <mxGeometry x="30" y="16" width="50" height="50" as="geometry" />
        </mxCell>
        <mxCell id="u9NiN3fWlVmESYlsB_uh-14" value="" style="image;aspect=fixed;perimeter=ellipsePerimeter;html=1;align=center;shadow=0;dashed=0;spacingTop=3;image=img/lib/active_directory/cluster_server.svg;" vertex="1" parent="u9NiN3fWlVmESYlsB_uh-17">
          <mxGeometry x="110" y="16" width="50" height="50" as="geometry" />
        </mxCell>
        <mxCell id="u9NiN3fWlVmESYlsB_uh-15" value="" style="image;aspect=fixed;perimeter=ellipsePerimeter;html=1;align=center;shadow=0;dashed=0;spacingTop=3;image=img/lib/active_directory/cluster_server.svg;" vertex="1" parent="u9NiN3fWlVmESYlsB_uh-17">
          <mxGeometry x="189" y="16" width="50" height="50" as="geometry" />
        </mxCell>
        <mxCell id="u9NiN3fWlVmESYlsB_uh-16" value="Chat Servers" style="text;html=1;align=center;verticalAlign=middle;resizable=0;points=[];autosize=1;strokeColor=none;fillColor=none;" vertex="1" parent="u9NiN3fWlVmESYlsB_uh-17">
          <mxGeometry x="80" y="76" width="90" height="30" as="geometry" />
        </mxCell>
        <mxCell id="u9NiN3fWlVmESYlsB_uh-43" value="" style="outlineConnect=0;dashed=0;verticalLabelPosition=bottom;verticalAlign=top;align=center;html=1;shape=mxgraph.aws3.dynamo_db;fillColor=#2E73B8;gradientColor=none;" vertex="1" parent="u9NiN3fWlVmESYlsB_uh-17">
          <mxGeometry x="10" y="66" width="40" height="35" as="geometry" />
        </mxCell>
        <mxCell id="u9NiN3fWlVmESYlsB_uh-18" value="" style="group" vertex="1" connectable="0" parent="1">
          <mxGeometry x="430" y="470" width="270" height="110" as="geometry" />
        </mxCell>
        <mxCell id="u9NiN3fWlVmESYlsB_uh-19" value="" style="rounded=1;whiteSpace=wrap;html=1;" vertex="1" parent="u9NiN3fWlVmESYlsB_uh-18">
          <mxGeometry width="270" height="110" as="geometry" />
        </mxCell>
        <mxCell id="u9NiN3fWlVmESYlsB_uh-20" value="" style="image;aspect=fixed;perimeter=ellipsePerimeter;html=1;align=center;shadow=0;dashed=0;spacingTop=3;image=img/lib/active_directory/cluster_server.svg;" vertex="1" parent="u9NiN3fWlVmESYlsB_uh-18">
          <mxGeometry x="30" y="16" width="50" height="50" as="geometry" />
        </mxCell>
        <mxCell id="u9NiN3fWlVmESYlsB_uh-21" value="" style="image;aspect=fixed;perimeter=ellipsePerimeter;html=1;align=center;shadow=0;dashed=0;spacingTop=3;image=img/lib/active_directory/cluster_server.svg;" vertex="1" parent="u9NiN3fWlVmESYlsB_uh-18">
          <mxGeometry x="110" y="16" width="50" height="50" as="geometry" />
        </mxCell>
        <mxCell id="u9NiN3fWlVmESYlsB_uh-22" value="" style="image;aspect=fixed;perimeter=ellipsePerimeter;html=1;align=center;shadow=0;dashed=0;spacingTop=3;image=img/lib/active_directory/cluster_server.svg;" vertex="1" parent="u9NiN3fWlVmESYlsB_uh-18">
          <mxGeometry x="189" y="16" width="50" height="50" as="geometry" />
        </mxCell>
        <mxCell id="u9NiN3fWlVmESYlsB_uh-23" value="Chat Servers" style="text;html=1;align=center;verticalAlign=middle;resizable=0;points=[];autosize=1;strokeColor=none;fillColor=none;" vertex="1" parent="u9NiN3fWlVmESYlsB_uh-18">
          <mxGeometry x="80" y="76" width="90" height="30" as="geometry" />
        </mxCell>
        <mxCell id="u9NiN3fWlVmESYlsB_uh-24" value="" style="image;aspect=fixed;html=1;points=[];align=center;fontSize=12;image=img/lib/azure2/databases/SQL_Database.svg;" vertex="1" parent="1">
          <mxGeometry x="910" y="210" width="48" height="64" as="geometry" />
        </mxCell>
        <mxCell id="u9NiN3fWlVmESYlsB_uh-25" value="" style="shape=flexArrow;endArrow=classic;startArrow=classic;html=1;rounded=0;entryX=-0.062;entryY=0.359;entryDx=0;entryDy=0;entryPerimeter=0;" edge="1" parent="1" target="u9NiN3fWlVmESYlsB_uh-24">
          <mxGeometry width="100" height="100" relative="1" as="geometry">
            <mxPoint x="780" y="180" as="sourcePoint" />
            <mxPoint x="900" y="230" as="targetPoint" />
          </mxGeometry>
        </mxCell>
        <mxCell id="u9NiN3fWlVmESYlsB_uh-28" value="" style="outlineConnect=0;dashed=0;verticalLabelPosition=bottom;verticalAlign=top;align=center;html=1;shape=mxgraph.aws3.application_load_balancer;fillColor=#F58534;gradientColor=none;" vertex="1" parent="1">
          <mxGeometry x="1020" y="480" width="69" height="72" as="geometry" />
        </mxCell>
        <mxCell id="u9NiN3fWlVmESYlsB_uh-29" value="" style="image;aspect=fixed;perimeter=ellipsePerimeter;html=1;align=center;shadow=0;dashed=0;spacingTop=3;image=img/lib/active_directory/server_farm.svg;" vertex="1" parent="1">
          <mxGeometry x="914" y="350" width="50" height="50" as="geometry" />
        </mxCell>
        <mxCell id="u9NiN3fWlVmESYlsB_uh-32" value="Presence Servers" style="text;html=1;align=center;verticalAlign=middle;resizable=0;points=[];autosize=1;strokeColor=none;fillColor=none;" vertex="1" parent="1">
          <mxGeometry x="879" y="414" width="120" height="30" as="geometry" />
        </mxCell>
        <mxCell id="u9NiN3fWlVmESYlsB_uh-33" value="" style="shape=actor;whiteSpace=wrap;html=1;" vertex="1" parent="1">
          <mxGeometry x="1090" y="590" width="40" height="60" as="geometry" />
        </mxCell>
        <mxCell id="u9NiN3fWlVmESYlsB_uh-34" value="" style="endArrow=none;dashed=1;html=1;dashPattern=1 3;strokeWidth=2;rounded=0;" edge="1" parent="1">
          <mxGeometry width="50" height="50" relative="1" as="geometry">
            <mxPoint x="510" y="464" as="sourcePoint" />
            <mxPoint x="260" y="414" as="targetPoint" />
          </mxGeometry>
        </mxCell>
        <mxCell id="u9NiN3fWlVmESYlsB_uh-35" value="User_NA" style="text;html=1;align=center;verticalAlign=middle;resizable=0;points=[];autosize=1;strokeColor=none;fillColor=none;" vertex="1" parent="1">
          <mxGeometry x="60" y="186" width="70" height="30" as="geometry" />
        </mxCell>
        <mxCell id="u9NiN3fWlVmESYlsB_uh-36" value="User_APAC" style="text;html=1;align=center;verticalAlign=middle;resizable=0;points=[];autosize=1;strokeColor=none;fillColor=none;" vertex="1" parent="1">
          <mxGeometry x="1045" y="658" width="90" height="30" as="geometry" />
        </mxCell>
        <mxCell id="u9NiN3fWlVmESYlsB_uh-38" value="" style="endArrow=classic;startArrow=classic;html=1;rounded=0;" edge="1" parent="1">
          <mxGeometry width="50" height="50" relative="1" as="geometry">
            <mxPoint x="1100" y="608" as="sourcePoint" />
            <mxPoint x="1059" y="562" as="targetPoint" />
          </mxGeometry>
        </mxCell>
        <mxCell id="u9NiN3fWlVmESYlsB_uh-39" value="" style="endArrow=classic;startArrow=classic;html=1;rounded=0;entryX=0.575;entryY=-0.2;entryDx=0;entryDy=0;entryPerimeter=0;" edge="1" parent="1" source="u9NiN3fWlVmESYlsB_uh-28" target="u9NiN3fWlVmESYlsB_uh-32">
          <mxGeometry width="50" height="50" relative="1" as="geometry">
            <mxPoint x="950" y="500" as="sourcePoint" />
            <mxPoint x="1000" y="450" as="targetPoint" />
          </mxGeometry>
        </mxCell>
        <mxCell id="u9NiN3fWlVmESYlsB_uh-40" value="" style="endArrow=classic;startArrow=classic;html=1;rounded=0;" edge="1" parent="1">
          <mxGeometry width="50" height="50" relative="1" as="geometry">
            <mxPoint x="940" y="340" as="sourcePoint" />
            <mxPoint x="950" y="280" as="targetPoint" />
          </mxGeometry>
        </mxCell>
        <mxCell id="u9NiN3fWlVmESYlsB_uh-41" value="" style="endArrow=none;html=1;rounded=0;entryX=0.575;entryY=1.117;entryDx=0;entryDy=0;entryPerimeter=0;exitX=0.25;exitY=0;exitDx=0;exitDy=0;" edge="1" parent="1" source="u9NiN3fWlVmESYlsB_uh-13" target="u9NiN3fWlVmESYlsB_uh-1">
          <mxGeometry width="50" height="50" relative="1" as="geometry">
            <mxPoint x="560" y="420" as="sourcePoint" />
            <mxPoint x="560" y="350" as="targetPoint" />
          </mxGeometry>
        </mxCell>
        <mxCell id="u9NiN3fWlVmESYlsB_uh-42" value="" style="endArrow=none;html=1;rounded=0;entryX=0;entryY=0.75;entryDx=0;entryDy=0;exitX=0.75;exitY=1;exitDx=0;exitDy=0;" edge="1" parent="1" source="u9NiN3fWlVmESYlsB_uh-22" target="u9NiN3fWlVmESYlsB_uh-33">
          <mxGeometry width="50" height="50" relative="1" as="geometry">
            <mxPoint x="560" y="420" as="sourcePoint" />
            <mxPoint x="610" y="370" as="targetPoint" />
          </mxGeometry>
        </mxCell>
      </root>
    </mxGraphModel>
  </diagram>
</mxfile>
